<svg width="22" height="25" viewBox="0 0 22 25" fill="none" xmlns="http://www.w3.org/2000/svg">
<path d="M20.75 24.1035C20.55 24.1035 20.35 24.0035 20.2 23.9035L11 14.6035L1.8 23.9035C1.6 24.1035 1.25 24.2035 1 24.0535C0.7 23.9535 0.5 23.6535 0.5 23.3535V0.853516C0.5 0.453516 0.85 0.103516 1.25 0.103516H20.75C21.15 0.103516 21.5 0.453516 21.5 0.853516V23.3535C21.5 23.6535 21.3 23.9535 21.05 24.0535C20.95 24.1035 20.85 24.1035 20.75 24.1035ZM11 13.1035C11.4 13.1035 11.8 13.2535 12.1 13.5535L20 21.5535V1.60352H2V21.5535L9.9 13.5535C10.2 13.2535 10.6 13.1035 11 13.1035Z" fill="#262626"/>
</svg>
