<svg width="24" height="22" viewBox="0 0 24 22" fill="none" xmlns="http://www.w3.org/2000/svg">
<path d="M11.7316 20.4753L11.9923 20.6412L12.2572 20.4823C12.5571 20.3023 13.0863 19.8499 13.8443 19.1775C14.2448 18.8222 14.7243 18.3916 15.2869 17.8862C15.812 17.4145 16.4096 16.8777 17.083 16.2765C17.4084 15.9859 17.7403 15.6972 18.0723 15.4085C19.1376 14.4818 20.2029 13.5551 21.0538 12.5673C22.1861 11.2529 23 9.76609 23 7.9035C23 4.52593 20.4723 1.6535 17.3 1.6535C16.1655 1.6535 15.2622 1.92509 14.5284 2.3696C13.8012 2.81014 13.267 3.40437 12.8429 4.01318C12.4455 4.55744 12.1822 4.99349 12 5.31888C11.8178 4.99349 11.5545 4.55744 11.1571 4.01318C10.733 3.40437 10.1988 2.81014 9.47156 2.3696C8.73777 1.92509 7.83448 1.6535 6.7 1.6535C3.52767 1.6535 1 4.52593 1 7.9035C1 9.76372 1.79923 11.25 2.92649 12.5662C3.80905 13.5968 4.92562 14.5578 6.04804 15.5239C6.33906 15.7744 6.63048 16.0252 6.91832 16.2777C7.35289 16.667 7.76857 17.0406 8.16104 17.3933C8.8489 18.0116 9.46544 18.5658 9.98728 19.0278C10.7917 19.7401 11.4147 20.2737 11.7316 20.4753ZM11.5961 3.74824L12.0054 4.30914L12.4076 3.74311C13.6681 1.9691 15.2191 1.1535 17.3 1.1535C20.6873 1.1535 23.5 4.1416 23.5 7.9035C23.5 11.3303 21.0683 13.487 18.3941 15.7076C18.1389 15.8916 17.8935 16.1119 17.6647 16.3173C17.5646 16.4071 17.4678 16.494 17.3746 16.5739L17.3745 16.5738L17.3655 16.5819L16.3655 17.4819L16.3655 17.4818L16.3615 17.4855C15.1108 18.6362 14.2653 19.407 13.6707 19.9272C13.0691 20.4537 12.7497 20.7006 12.5428 20.8248C12.3371 20.9482 12.1771 21.0035 12 21.0035C11.865 21.0035 11.6535 20.9425 11.4572 20.8248C11.252 20.7016 10.8864 20.4084 10.2651 19.8695C9.82454 19.4874 9.2738 18.9983 8.58614 18.3876C8.32201 18.1531 8.03769 17.9006 7.73165 17.6293L7.72809 17.6262L6.59103 16.6375C6.27839 16.3262 5.92109 16.0203 5.62369 15.7724C2.98632 13.49 0.5 11.2864 0.5 7.9035C0.5 4.13967 3.31281 1.15778 6.69324 1.20346L6.69324 1.2035H6.7C8.78258 1.2035 10.3356 2.02086 11.5961 3.74824Z" fill="#262626" stroke="black"/>
</svg>
